<svg width="32" height="32" viewBox="0 0 32 32" fill="none" xmlns="http://www.w3.org/2000/svg">
<g filter="url(#filter0_ii_4_233)">
<g clip-path="url(#clip0_4_233)">
<rect width="32" height="32" rx="16" fill="white"/>
<rect width="32" height="32" rx="16" fill="url(#paint0_radial_4_233)"/>
<path d="M15.5 10.5V9C15.5 8.86739 15.5527 8.74021 15.6464 8.64645C15.7402 8.55268 15.8674 8.5 16 8.5C16.1326 8.5 16.2598 8.55268 16.3536 8.64645C16.4473 8.74021 16.5 8.86739 16.5 9V10.5C16.5 10.6326 16.4473 10.7598 16.3536 10.8536C16.2598 10.9473 16.1326 11 16 11C15.8674 11 15.7402 10.9473 15.6464 10.8536C15.5527 10.7598 15.5 10.6326 15.5 10.5ZM16 12C15.2089 12 14.4355 12.2346 13.7777 12.6741C13.1199 13.1136 12.6072 13.7384 12.3045 14.4693C12.0017 15.2002 11.9225 16.0044 12.0769 16.7804C12.2312 17.5563 12.6122 18.269 13.1716 18.8284C13.731 19.3878 14.4437 19.7688 15.2196 19.9231C15.9956 20.0775 16.7998 19.9983 17.5307 19.6955C18.2616 19.3928 18.8864 18.8801 19.3259 18.2223C19.7654 17.5645 20 16.7911 20 16C19.9988 14.9395 19.577 13.9227 18.8271 13.1729C18.0773 12.423 17.0605 12.0012 16 12ZM11.6463 12.3538C11.7401 12.4476 11.8673 12.5003 12 12.5003C12.1327 12.5003 12.2599 12.4476 12.3538 12.3538C12.4476 12.2599 12.5003 12.1327 12.5003 12C12.5003 11.8673 12.4476 11.7401 12.3538 11.6463L11.3537 10.6463C11.2599 10.5524 11.1327 10.4997 11 10.4997C10.8673 10.4997 10.7401 10.5524 10.6463 10.6463C10.5524 10.7401 10.4997 10.8673 10.4997 11C10.4997 11.1327 10.5524 11.2599 10.6463 11.3537L11.6463 12.3538ZM11.6463 19.6462L10.6463 20.6462C10.5524 20.7401 10.4997 20.8673 10.4997 21C10.4997 21.1327 10.5524 21.2599 10.6463 21.3538C10.7401 21.4476 10.8673 21.5003 11 21.5003C11.1327 21.5003 11.2599 21.4476 11.3537 21.3538L12.3538 20.3538C12.4002 20.3073 12.4371 20.2521 12.4622 20.1914C12.4873 20.1308 12.5003 20.0657 12.5003 20C12.5003 19.9343 12.4873 19.8692 12.4622 19.8086C12.4371 19.7479 12.4002 19.6927 12.3538 19.6462C12.3073 19.5998 12.2521 19.5629 12.1914 19.5378C12.1308 19.5127 12.0657 19.4997 12 19.4997C11.9343 19.4997 11.8692 19.5127 11.8086 19.5378C11.7479 19.5629 11.6927 19.5998 11.6463 19.6462ZM20 12.5C20.0657 12.5001 20.1307 12.4872 20.1914 12.4621C20.2521 12.437 20.3073 12.4002 20.3538 12.3538L21.3538 11.3537C21.4476 11.2599 21.5003 11.1327 21.5003 11C21.5003 10.8673 21.4476 10.7401 21.3538 10.6463C21.2599 10.5524 21.1327 10.4997 21 10.4997C20.8673 10.4997 20.7401 10.5524 20.6462 10.6463L19.6462 11.6463C19.5762 11.7162 19.5286 11.8053 19.5092 11.9023C19.4899 11.9994 19.4998 12.1 19.5377 12.1914C19.5756 12.2828 19.6397 12.3609 19.722 12.4159C19.8043 12.4708 19.9011 12.5001 20 12.5ZM20.3538 19.6462C20.2599 19.5524 20.1327 19.4997 20 19.4997C19.8673 19.4997 19.7401 19.5524 19.6462 19.6462C19.5524 19.7401 19.4997 19.8673 19.4997 20C19.4997 20.1327 19.5524 20.2599 19.6462 20.3538L20.6462 21.3538C20.6927 21.4002 20.7479 21.4371 20.8086 21.4622C20.8692 21.4873 20.9343 21.5003 21 21.5003C21.0657 21.5003 21.1308 21.4873 21.1914 21.4622C21.2521 21.4371 21.3073 21.4002 21.3538 21.3538C21.4002 21.3073 21.4371 21.2521 21.4622 21.1914C21.4873 21.1308 21.5003 21.0657 21.5003 21C21.5003 20.9343 21.4873 20.8692 21.4622 20.8086C21.4371 20.7479 21.4002 20.6927 21.3538 20.6462L20.3538 19.6462ZM11 16C11 15.8674 10.9473 15.7402 10.8536 15.6464C10.7598 15.5527 10.6326 15.5 10.5 15.5H9C8.86739 15.5 8.74021 15.5527 8.64645 15.6464C8.55268 15.7402 8.5 15.8674 8.5 16C8.5 16.1326 8.55268 16.2598 8.64645 16.3536C8.74021 16.4473 8.86739 16.5 9 16.5H10.5C10.6326 16.5 10.7598 16.4473 10.8536 16.3536C10.9473 16.2598 11 16.1326 11 16ZM16 21C15.8674 21 15.7402 21.0527 15.6464 21.1464C15.5527 21.2402 15.5 21.3674 15.5 21.5V23C15.5 23.1326 15.5527 23.2598 15.6464 23.3536C15.7402 23.4473 15.8674 23.5 16 23.5C16.1326 23.5 16.2598 23.4473 16.3536 23.3536C16.4473 23.2598 16.5 23.1326 16.5 23V21.5C16.5 21.3674 16.4473 21.2402 16.3536 21.1464C16.2598 21.0527 16.1326 21 16 21ZM23 15.5H21.5C21.3674 15.5 21.2402 15.5527 21.1464 15.6464C21.0527 15.7402 21 15.8674 21 16C21 16.1326 21.0527 16.2598 21.1464 16.3536C21.2402 16.4473 21.3674 16.5 21.5 16.5H23C23.1326 16.5 23.2598 16.4473 23.3536 16.3536C23.4473 16.2598 23.5 16.1326 23.5 16C23.5 15.8674 23.4473 15.7402 23.3536 15.6464C23.2598 15.5527 23.1326 15.5 23 15.5Z" fill="#FA8A01"/>
</g>
</g>
<defs>
<filter id="filter0_ii_4_233" x="0" y="-2.28571" width="32" height="36.5714" filterUnits="userSpaceOnUse" color-interpolation-filters="sRGB">
<feFlood flood-opacity="0" result="BackgroundImageFix"/>
<feBlend mode="normal" in="SourceGraphic" in2="BackgroundImageFix" result="shape"/>
<feColorMatrix in="SourceAlpha" type="matrix" values="0 0 0 0 0 0 0 0 0 0 0 0 0 0 0 0 0 0 127 0" result="hardAlpha"/>
<feOffset dy="2.28571"/>
<feGaussianBlur stdDeviation="2.28571"/>
<feComposite in2="hardAlpha" operator="arithmetic" k2="-1" k3="1"/>
<feColorMatrix type="matrix" values="0 0 0 0 1 0 0 0 0 1 0 0 0 0 1 0 0 0 1 0"/>
<feBlend mode="overlay" in2="shape" result="effect1_innerShadow_4_233"/>
<feColorMatrix in="SourceAlpha" type="matrix" values="0 0 0 0 0 0 0 0 0 0 0 0 0 0 0 0 0 0 127 0" result="hardAlpha"/>
<feOffset dy="-2.28571"/>
<feGaussianBlur stdDeviation="1.14286"/>
<feComposite in2="hardAlpha" operator="arithmetic" k2="-1" k3="1"/>
<feColorMatrix type="matrix" values="0 0 0 0 1 0 0 0 0 1 0 0 0 0 1 0 0 0 0.4 0"/>
<feBlend mode="normal" in2="effect1_innerShadow_4_233" result="effect2_innerShadow_4_233"/>
</filter>
<radialGradient id="paint0_radial_4_233" cx="0" cy="0" r="1" gradientUnits="userSpaceOnUse" gradientTransform="translate(16 10.8571) rotate(90) scale(21.1429)">
<stop stop-color="#FA8A01" stop-opacity="0"/>
<stop offset="1" stop-color="#FA8A01"/>
</radialGradient>
<clipPath id="clip0_4_233">
<rect width="32" height="32" rx="16" fill="white"/>
</clipPath>
</defs>
</svg>
